<svg id="Livello_1" data-name="Livello 1" xmlns="http://www.w3.org/2000/svg" viewBox="0 0 100 100"><path fill="currentColor" d="M32.06,66.35v-3c0-8.65,0-17.3-.08-25.95,0-2.61.85-4.19,3.27-5.2,7.83-3.29,15.62-6.71,23.42-10.07a6.5,6.5,0,0,1,1.12-.4c1.27-.26,1.88.17,1.91,1.51,0,2.37,0,4.75,0,7.13,0,9.57-.13,19.15,0,28.72A9.17,9.17,0,0,1,51.44,68.5a6.37,6.37,0,0,1-5.64-9,8.91,8.91,0,0,1,9.72-5.14c.64.13,1.27.31,2,.5a11.55,11.55,0,0,0,.18-1.39q0-8.82,0-17.63a8.18,8.18,0,0,0,0-1c-.12-1.16-.62-1.51-1.71-1.21a10.51,10.51,0,0,0-1.1.44C49.31,36.57,43.71,39.06,38,41.39a2.86,2.86,0,0,0-2,3.12c.06,8.18,0,16.37,0,24.56a18.93,18.93,0,0,1-.25,4.33,9.2,9.2,0,0,1-11.65,6.36,6.52,6.52,0,0,1-3.72-9.2,9,9,0,0,1,10-4.62Z"/><path fill="currentColor" d="M54.37,70.61A10.06,10.06,0,0,1,46,68.55c-.19.13-.26.16-.29.21-.13.22-.25.46-.38.69-2.26,3.73-4.91,7-9.21,8.6a3.27,3.27,0,0,0-1.11.8,12.41,12.41,0,0,1-7.21,3.38,9.34,9.34,0,0,1-9.91-6.49,9.06,9.06,0,0,1,4.19-10.06,16.51,16.51,0,0,0,2.92-2A10.63,10.63,0,0,1,29.1,61,1.06,1.06,0,0,0,30,59.83c0-3.5,0-7,0-10.67l-1.41.29c-10,2-17.53,11.08-15.76,22.62A19.51,19.51,0,0,0,38.46,88c8.22-2.66,13.21-8.61,16-16.61A1.94,1.94,0,0,0,54.37,70.61Zm-33.9-14.2a10.85,10.85,0,0,0,1.39-3.08,12,12,0,0,0,1.48,3A11.59,11.59,0,0,0,26.1,58a11.06,11.06,0,0,0-2.83,1.61,10.84,10.84,0,0,0-1.37,2.95,11.78,11.78,0,0,0-1.51-3.1A9.63,9.63,0,0,0,17.6,58,10.44,10.44,0,0,0,20.47,56.41Zm24.63,24a10.48,10.48,0,0,0-1.37,3,12.1,12.1,0,0,0-1.51-3.1,9.77,9.77,0,0,0-2.79-1.46,10.22,10.22,0,0,0,2.87-1.58,10.93,10.93,0,0,0,1.39-3.07,11.59,11.59,0,0,0,1.47,3,11.18,11.18,0,0,0,2.77,1.68A11,11,0,0,0,45.1,80.4Z"/><path fill="currentColor" d="M18.38,37.93c0-1,.11-1.86.11-2.77,0-4.49,0-9,0-13.47,0-2.33.25-2.63,2.42-3.48,4.18-1.62,8.35-3.26,12.52-4.89a12.72,12.72,0,0,1,1.3-.48c1.17-.32,1.54-.05,1.67,1.2a5.72,5.72,0,0,1,0,.59c0,4.43-.06,8.85,0,13.27A1.87,1.87,0,0,1,34.89,30a10.94,10.94,0,0,0-1.42.69A5.84,5.84,0,0,0,30,36.25c-.05,1.25,0,2.5,0,3.75-2.86-.24-4.63-2-4.57-4.43a4.59,4.59,0,0,1,1.19-3,7.6,7.6,0,0,1,3-1.86,14.81,14.81,0,0,1,3.43-1c-.06-1.62-.17-6.57-.24-8.28l-2.52,1c-2.27.89-4.51,1.84-6.81,2.65A2,2,0,0,0,22,27.23q.11,6.84,0,13.67a9.55,9.55,0,0,1-.49,3.29c-1.25,3.26-5.73,4.83-8.83,3.21a4.62,4.62,0,0,1-1.39-7.11,5.88,5.88,0,0,1,5-2.36C16.9,38,17.54,37.93,18.38,37.93Z"/><path fill="currentColor" d="M77.75,39.83c-.4-1.78.72-3.68-.54-5.56l-2.28,1.28c-1.56-1.31-3.2-2.63-4.76-4a2.11,2.11,0,0,1-.46-1.36A6.55,6.55,0,0,1,70,28.61c-1.9-.75-3.51.52-5.25.57a9.32,9.32,0,0,1,7.35-8.25,2.74,2.74,0,0,0,1.44-1.15,18.86,18.86,0,0,1,13-8.53c.13,0,.25-.07.38-.09,2.4-.4,2.75-.09,2.87,2.35a20.36,20.36,0,0,1-5.36,15.43,2.82,2.82,0,0,0-.62,2.17A9.28,9.28,0,0,1,77.75,39.83Zm3.41-15.52a3.05,3.05,0,0,0,3-2.82,3,3,0,0,0-3-3,2.84,2.84,0,0,0-2.85,2.91A2.88,2.88,0,0,0,81.16,24.31Z"/><path fill="currentColor" d="M72.08,81.63A10.14,10.14,0,0,1,61.86,71.48,10.35,10.35,0,0,1,72,61,10.24,10.24,0,0,1,82.23,71.24,10.09,10.09,0,0,1,72.08,81.63ZM70.7,72.78c0,1.31,0,2.36,0,3.4s.81,1.59,1.89,1.25a1.38,1.38,0,0,0,1-1.53c0-1,0-1.94,0-3.07,1.15,0,2.06,0,3,0,1.15,0,1.7-.55,1.75-1.46s-.5-1.36-1.72-1.43c-.95-.06-1.91-.06-3-.09,0-1.18,0-2.1,0-3C73.52,65.66,73,65,72.18,65c-1,0-1.55.58-1.63,1.82-.06,1,0,2,0,3.16-1.18,0-2.22,0-3.26,0S66,70.52,66,71.39a1.19,1.19,0,0,0,1.29,1.38C68.33,72.8,69.38,72.78,70.7,72.78Z"/><path fill="currentColor" d="M38.34,59.38V49.21c1.2,0,2.36,0,3.52,0a19.12,19.12,0,0,0,9.78-1.78c1.33-.7,2.58-1.55,4-2.39v7a9.88,9.88,0,0,1-1.31.1,10.48,10.48,0,0,0-9.61,5.15A3.13,3.13,0,0,1,41.85,59C40.76,59,39.67,59.23,38.34,59.38Z"/><path fill="currentColor" d="M71.84,35.41A59,59,0,0,0,63.78,51c0-4,0-8,0-11.94a2.62,2.62,0,0,1,.38-1.48c1.16-1.5,2.42-2.93,3.66-4.37.44-.52.91-.42,1.38,0Z"/><path fill="currentColor" d="M74,37.36c-.54,2-1.08,4.24-1.62,6.27a28.41,28.41,0,0,0-.48,14.27,3.94,3.94,0,0,1,0,.85l-4.19.94a54.7,54.7,0,0,1,0-6.28A32,32,0,0,1,73,38.65a8.52,8.52,0,0,1,1-1.29Z"/><path fill="currentColor" d="M45.52,87.15a5.59,5.59,0,0,1,.86-1,29.23,29.23,0,0,0,9.79-13.82A6.81,6.81,0,0,1,59.94,68c.2,7-3.28,12.12-8.71,16a46,46,0,0,1-5.71,3.08Z"/><path fill="currentColor" d="M45.14,23.12c-.66-1.44-1-2.81-1.79-3.69S41.23,18.29,40,17.7c1.22-.64,2.6-1,3.42-1.88s1.07-2.3,1.65-3.66a14.09,14.09,0,0,0,1.76,3.54,13.66,13.66,0,0,0,3.28,2c-1.17.63-2.52,1-3.36,1.91S45.74,21.75,45.14,23.12Z"/><path fill="currentColor" d="M59.81,87.72a7.17,7.17,0,0,0-1.27-1.61,5.84,5.84,0,0,0-1.81-.49,6.21,6.21,0,0,0,1.47-1.28,6.46,6.46,0,0,0,.41-2,7.32,7.32,0,0,0,1.24,1.54,6.73,6.73,0,0,0,1.82.62,6.46,6.46,0,0,0-1.44,1.29A6.22,6.22,0,0,0,59.81,87.72Z"/><path fill="currentColor" d="M78.36,56.34a11.94,11.94,0,0,0,.24-3.46,10.19,10.19,0,0,0-1.71-2.68,10.23,10.23,0,0,0,3.3.06,10.89,10.89,0,0,0,2.76-2,12.22,12.22,0,0,0-.21,3.34,11.36,11.36,0,0,0,1.58,2.85,11.29,11.29,0,0,0-3.28,0A10.53,10.53,0,0,0,78.36,56.34Z"/><path fill="currentColor" d="M58.31,17.38l-2.1-2.12,2-2,2,2Z"/><path fill="currentColor" d="M14.18,54.19l-1.84,2.09-1.83-2,1.89-2Z"/><path fill="currentColor" d="M87.7,42.77l-1.83,2.09-1.84-2,1.9-2Z"/><path fill="currentColor" d="M48.57,43.45l1.67-1.68,1.34,1.67-1.35,1.72Z"/></svg>