<svg xmlns="http://www.w3.org/2000/svg" viewBox="20 139 100 84"><path fill="currentColor" d="M58.1383 149C57.9509 149 57.7624 149.006 57.573 149.018C54.5434 149.209 51.4727 151.194 50.3812 154.101C43.8953 171.371 40.6568 178.416 38.6742 196.154C41.4597 198.699 44.6952 201.145 48.2397 203.348L60.8806 166.277L64.2477 167.403L51.3684 205.181C55.0823 207.234 59.0646 208.999 63.1706 210.329L77.525 172.303L80.8563 173.535L66.5914 211.325C70.2946 212.287 74.0544 212.873 77.7806 213L92.8789 179.331L96.1329 180.764L81.6895 212.965C85.8431 212.731 89.9139 211.876 93.7652 210.27C102.011 200.111 107.592 189.556 109.851 177.686C110.82 172.593 107.04 167.662 99.5293 167.344L98.3576 167.291L97.9411 166.206C96.3326 161.982 94.1815 160.528 91.9448 160.079C89.7081 159.631 87.135 160.369 85.1932 161.471L82.7064 162.881L82.5339 160.05C82.3454 156.957 80.565 154.466 77.9057 153.328C75.2464 152.19 71.6117 152.341 67.4718 155.197L65.4848 156.565L64.7592 154.278C63.5186 150.359 60.9507 148.997 58.1385 149L58.1383 149ZM39.9469 172.321C33.8294 180.831 29.3721 193.306 30.0725 204.645C35.3149 208.766 40.4679 211.002 45.3131 211.331C48.0076 211.514 50.6317 211.127 53.1949 210.117C46.4477 206.865 40.3724 202.657 35.5689 198.129L34.9325 197.534L35.0277 196.667C36.1306 186.357 37.6824 179.402 39.9473 172.321H39.9469Z"/></svg>
